<?xml version="1.0" encoding="UTF-8" standalone="no"?>
<svg
   xmlns:dc="http://purl.org/dc/elements/1.1/"
   xmlns:cc="http://creativecommons.org/ns#"
   xmlns:rdf="http://www.w3.org/1999/02/22-rdf-syntax-ns#"
   xmlns:svg="http://www.w3.org/2000/svg"
   xmlns="http://www.w3.org/2000/svg"
   xmlns:sodipodi="http://sodipodi.sourceforge.net/DTD/sodipodi-0.dtd"
   xmlns:inkscape="http://www.inkscape.org/namespaces/inkscape"
   width="26"
   height="19"
   viewBox="0 0 26 19"
   fill="none"
   version="1.1"
   id="svg4"
   sodipodi:docname="dark-back-arrow.svg"
   inkscape:version="1.0.1 (3bc2e813f5, 2020-09-07)">
  <metadata
     id="metadata10">
    <rdf:RDF>
      <cc:Work
         rdf:about="">
        <dc:format>image/svg+xml</dc:format>
        <dc:type
           rdf:resource="http://purl.org/dc/dcmitype/StillImage" />
        <dc:title></dc:title>
      </cc:Work>
    </rdf:RDF>
  </metadata>
  <defs
     id="defs8" />
  <sodipodi:namedview
     pagecolor="#ffffff"
     bordercolor="#666666"
     borderopacity="1"
     objecttolerance="10"
     gridtolerance="10"
     guidetolerance="10"
     inkscape:pageopacity="0"
     inkscape:pageshadow="2"
     inkscape:window-width="1920"
     inkscape:window-height="974"
     id="namedview6"
     showgrid="false"
     inkscape:zoom="24.22499"
     inkscape:cx="4.1334907"
     inkscape:cy="8.2669412"
     inkscape:window-x="-11"
     inkscape:window-y="-11"
     inkscape:window-maximized="1"
     inkscape:current-layer="svg4" />
  <path
     d="M0.376318 10.4043L8.37587 18.5468C8.89101 19.1025 9.9091 19.1521 10.5062 18.6683C11.1033 18.1846 11.1636 17.262 10.6101 16.7375L4.82915 10.8567L24.4999 10.8567C25.3282 10.8567 26 10.249 26 9.49958C26 8.75017 25.3286 8.14241 24.4999 8.14241L4.82915 8.14241L10.6101 2.26161C11.1636 1.73717 11.089 0.816067 10.4915 0.332363C9.89441 -0.151367 8.89097 -0.103403 8.37587 0.452269L0.376318 8.5948C-0.146152 9.25303 -0.104294 9.84405 0.376318 10.4041V10.4043Z"
     fill="#C7C7C7"
     id="path2" />
  <path
     style="fill:#717171;stroke-width:0.0241117;fill-opacity:1"
     d="M 9.0912618,18.939443 C 9.0146581,18.920159 8.8681796,18.86459 8.7657542,18.815955 8.5457561,18.711493 9.0780964,19.241331 4.0009176,14.073511 1.999878,12.036748 0.32500871,10.318253 0.27898559,10.254633 0.15364898,10.081373 0.06307934,9.8765079 0.03000885,9.6914568 -0.02204071,9.4002052 0.06549503,9.0719903 0.28028579,8.7530444 0.32768667,8.6826581 1.9865517,6.9758678 3.9666525,4.9601771 9.0980524,-0.26345297 8.5480009,0.28451767 8.76103,0.18393634 9.0025125,0.06992076 9.2180721,0.0229621 9.5021867,0.02247873 c 0.4482595,-7.6262e-4 0.7912613,0.1336385 1.0786083,0.42263965 0.266109,0.26764084 0.380926,0.54287058 0.382621,0.91719122 0.0012,0.2654693 -0.05366,0.4687909 -0.177854,0.6591245 -0.05359,0.082137 -1.2556572,1.3223735 -3.0162257,3.112011 -1.6099158,1.6364977 -2.9307066,2.9845518 -2.9350903,2.995676 -0.00438,0.011124 4.4821962,0.023187 9.970178,0.026808 9.575367,0.00632 9.983988,0.00836 10.122818,0.050534 0.348192,0.105782 0.677357,0.3462989 0.860459,0.6287274 0.25847,0.3986798 0.258002,0.9348029 -0.0012,1.3296205 -0.187933,0.286311 -0.456523,0.487628 -0.811078,0.607936 l -0.192893,0.06545 -9.978148,0.0062 c -5.4879818,0.0034 -9.9745618,0.01525 -9.970178,0.02627 0.00438,0.01102 1.3251058,1.359078 2.9349377,2.995675 1.6098319,1.636598 2.9634183,3.030309 3.0079693,3.097135 0.139697,0.209543 0.186675,0.374874 0.188139,0.662128 0.001,0.201445 -0.01002,0.287675 -0.05407,0.422041 -0.125253,0.382037 -0.426581,0.687356 -0.824492,0.835414 -0.1865838,0.06943 -0.2346533,0.07702 -0.5306759,0.08388 -0.2273097,0.0053 -0.3675249,-0.003 -0.4647873,-0.02752 z"
     id="path837" />
</svg>
