<?xml version="1.0" encoding="UTF-8" standalone="no"?>
<svg
   xmlns:dc="http://purl.org/dc/elements/1.1/"
   xmlns:cc="http://creativecommons.org/ns#"
   xmlns:rdf="http://www.w3.org/1999/02/22-rdf-syntax-ns#"
   xmlns:svg="http://www.w3.org/2000/svg"
   xmlns="http://www.w3.org/2000/svg"
   xmlns:sodipodi="http://sodipodi.sourceforge.net/DTD/sodipodi-0.dtd"
   xmlns:inkscape="http://www.inkscape.org/namespaces/inkscape"
   width="26"
   height="19"
   viewBox="0 0 26 19"
   fill="none"
   version="1.1"
   id="svg4"
   sodipodi:docname="light-next-arrow.svg"
   inkscape:version="1.0.1 (3bc2e813f5, 2020-09-07)">
  <metadata
     id="metadata10">
    <rdf:RDF>
      <cc:Work
         rdf:about="">
        <dc:format>image/svg+xml</dc:format>
        <dc:type
           rdf:resource="http://purl.org/dc/dcmitype/StillImage" />
        <dc:title></dc:title>
      </cc:Work>
    </rdf:RDF>
  </metadata>
  <defs
     id="defs8" />
  <sodipodi:namedview
     pagecolor="#ffffff"
     bordercolor="#666666"
     borderopacity="1"
     objecttolerance="10"
     gridtolerance="10"
     guidetolerance="10"
     inkscape:pageopacity="0"
     inkscape:pageshadow="2"
     inkscape:window-width="1920"
     inkscape:window-height="974"
     id="namedview6"
     showgrid="false"
     inkscape:zoom="41.473684"
     inkscape:cx="8.3585025"
     inkscape:cy="9.3914975"
     inkscape:window-x="-11"
     inkscape:window-y="-11"
     inkscape:window-maximized="1"
     inkscape:current-layer="svg4" />
  <path
     d="M25.6237 8.59569L17.6241 0.453153C17.109 -0.102518 16.0909 -0.152059 15.4938 0.33167C14.8967 0.8154 14.8364 1.73803 15.3899 2.26245L21.1709 8.14325H1.50011C0.671766 8.14325 0 8.75099 0 9.50042C0 10.2498 0.671391 10.8576 1.50011 10.8576H21.1709L15.3899 16.7384C14.8364 17.2628 14.911 18.1839 15.5085 18.6676C16.1056 19.1514 17.109 19.1034 17.6241 18.5477L25.6237 10.4052C26.1462 9.74697 26.1043 9.15595 25.6237 8.59591V8.59569Z"
     fill="#717171"
     id="path2" />
  <path
     style="fill:#c7c7c7;stroke:none;stroke-width:0.0241117;fill-opacity:1"
     d="m 16.182741,18.961314 c -0.565231,-0.136443 -0.937915,-0.459386 -1.088866,-0.943538 -0.05547,-0.177923 -0.0613,-0.229351 -0.05065,-0.447288 0.01352,-0.276809 0.06619,-0.447036 0.193437,-0.625196 0.04293,-0.06011 1.399133,-1.453373 3.01378,-3.096138 L 21.186165,10.86231 11.209833,10.85025 C 1.7815742,10.83886 1.2257826,10.83587 1.0929793,10.795819 0.43766432,10.598189 0.01586294,10.090743 0.01586294,9.5 c 0,-0.5907433 0.42180138,-1.0981891 1.07711636,-1.295819 C 1.2257825,8.16413 1.7815535,8.16114 11.209384,8.149746 l 9.97588,-0.012056 -2.9292,-2.9777919 C 16.625416,3.5022003 15.283973,2.1192556 15.230115,2.0403308 c -0.270154,-0.395889 -0.270154,-0.9679822 1e-6,-1.38898141 0.112225,-0.17488776 0.347102,-0.38091757 0.539204,-0.47298017 0.253527,-0.12149924 0.473441,-0.1621066 0.807372,-0.14908186 0.315272,0.01229692 0.529293,0.07253848 0.76792,0.21615054 0.183832,0.11063466 8.256772,8.3245837 8.414293,8.5612661 0.142553,0.2141883 0.205697,0.3966865 0.219506,0.6344037 0.0099,0.1695668 0.0023,0.2202242 -0.05901,0.3982313 -0.03866,0.1121731 -0.119649,0.279728 -0.179969,0.372344 -0.08148,0.125104 -1.157341,1.23451 -4.185115,4.315601 -4.368874,4.445807 -4.179573,4.263154 -4.539719,4.380303 -0.119348,0.03882 -0.231483,0.0527 -0.470178,0.05817 -0.172398,0.004 -0.335152,0.002 -0.361675,-0.0044 z"
     id="path835" />
</svg>
