<svg width="227" height="52" viewBox="0 0 227 52" fill="none" xmlns="http://www.w3.org/2000/svg">
<rect width="34.5802" height="43.4417" rx="10" transform="matrix(0.960838 0.277111 -0.383844 0.923398 40.7742 2.30371)" fill="#FFEDE9"/>
<rect width="34.6746" height="43.2833" rx="10" transform="matrix(0.967445 -0.25308 0.352801 0.935699 2.37036 9.43359)" fill="#FF7062"/>
<rect width="34.6746" height="43.2833" rx="10" transform="matrix(0.967445 -0.25308 0.352801 0.935699 0 8.77539)" fill="#FFEDE9"/>
<path d="M22.2648 32.1994C21.3258 32.4456 20.4428 32.465 19.6157 32.2578C18.7886 32.0505 18.0709 31.6315 17.4627 31.0006C16.8544 30.3698 16.3967 29.5646 16.0894 28.585C15.7822 27.6053 15.705 26.7052 15.8579 25.8844C16.0081 25.0548 16.3738 24.3517 16.9551 23.7753C17.5364 23.1988 18.2965 22.7875 19.2355 22.5414C20.4182 22.2314 21.5389 22.2845 22.5977 22.7009C22.7667 22.7722 22.895 22.8543 22.9827 22.9469C23.0704 23.0396 23.1393 23.1661 23.1896 23.3264C23.2622 23.5579 23.2574 23.776 23.175 23.9808C23.0989 24.1742 22.9661 24.2958 22.7765 24.3455C22.6501 24.3786 22.533 24.3948 22.4253 24.3941C22.3239 24.3822 22.2019 24.3515 22.0594 24.3021C21.6256 24.1652 21.2399 24.0881 20.9022 24.0706C20.5617 24.0442 20.2155 24.0771 19.8633 24.1694C18.9966 24.3966 18.4259 24.8354 18.1511 25.4857C17.8825 26.1247 17.9131 26.9696 18.2427 28.0205C18.9075 30.14 20.1111 30.9714 21.8536 30.5146C22.1876 30.427 22.4882 30.2952 22.7555 30.1192C23.0199 29.9342 23.3144 29.6739 23.639 29.3382C23.7493 29.2226 23.8454 29.1395 23.9273 29.0892C24.0064 29.0299 24.1046 28.9848 24.222 28.9541C24.4116 28.9044 24.5961 28.9476 24.7756 29.0836C24.9613 29.2084 25.0905 29.3866 25.1631 29.6181C25.2134 29.7784 25.2251 29.9248 25.1982 30.0571C25.1775 30.1782 25.1194 30.3042 25.0237 30.4353C24.3671 31.3014 23.4475 31.8894 22.2648 32.1994ZM30.9888 20.1109C31.0114 19.9026 31.0855 19.7338 31.211 19.6045C31.3338 19.4663 31.49 19.3724 31.6796 19.3227C31.9504 19.2516 32.2221 19.2768 32.4946 19.3981C32.7672 19.5194 32.944 19.7092 33.025 19.9675C33.0669 20.1011 33.0772 20.2429 33.0559 20.3931L31.7877 28.9658C31.7526 29.1967 31.6539 29.396 31.4916 29.5639C31.3265 29.7228 31.1266 29.833 30.8919 29.8946C30.6571 29.9561 30.4237 29.9595 30.1915 29.9047C29.9566 29.841 29.7574 29.7197 29.5938 29.5409L23.5491 22.8852C23.4468 22.7771 23.3747 22.6562 23.3328 22.5227C23.249 22.2555 23.292 22.0033 23.4618 21.766C23.6317 21.5287 23.8565 21.3734 24.1364 21.3C24.326 21.2503 24.5129 21.2543 24.6971 21.3121C24.8876 21.3585 25.0527 21.4646 25.1927 21.6303L30.0516 27.1223L30.9888 20.1109Z" fill="#FF7062"/>
<path d="M86.4808 38.224C85.1182 38.224 83.9142 37.9347 82.8688 37.356C81.8422 36.7773 81.0488 35.956 80.4888 34.892C79.9288 33.828 79.6488 32.5867 79.6488 31.168C79.6488 29.7493 79.9382 28.4987 80.5168 27.416C81.1142 26.3147 81.9448 25.4653 83.0088 24.868C84.0728 24.2707 85.2955 23.972 86.6768 23.972C87.4048 23.972 88.1328 24.0747 88.8608 24.28C89.6075 24.4853 90.2608 24.7653 90.8208 25.12C91.4182 25.512 91.7168 26.0067 91.7168 26.604C91.7168 27.0147 91.6142 27.3507 91.4088 27.612C91.2222 27.8547 90.9702 27.976 90.6528 27.976C90.4475 27.976 90.2328 27.9293 90.0088 27.836C89.7848 27.7427 89.5608 27.6307 89.3368 27.5C88.9262 27.2573 88.5342 27.0707 88.1608 26.94C87.7875 26.7907 87.3582 26.716 86.8728 26.716C85.7155 26.716 84.8195 27.0987 84.1848 27.864C83.5688 28.6107 83.2608 29.6933 83.2608 31.112C83.2608 32.512 83.5688 33.5947 84.1848 34.36C84.8195 35.1067 85.7155 35.48 86.8728 35.48C87.3395 35.48 87.7502 35.4147 88.1048 35.284C88.4782 35.1347 88.8888 34.9387 89.3368 34.696C89.6168 34.528 89.8595 34.4067 90.0648 34.332C90.2702 34.2387 90.4755 34.192 90.6808 34.192C90.9795 34.192 91.2315 34.3227 91.4368 34.584C91.6422 34.8453 91.7448 35.172 91.7448 35.564C91.7448 35.8813 91.6702 36.1613 91.5208 36.404C91.3902 36.628 91.1662 36.8333 90.8488 37.02C90.2702 37.3933 89.5982 37.692 88.8328 37.916C88.0675 38.1213 87.2835 38.224 86.4808 38.224ZM95.8127 38.168C95.3087 38.168 94.8887 38.028 94.5527 37.748C94.2354 37.4493 94.0767 37.0293 94.0767 36.488V19.772C94.0767 19.2307 94.2354 18.82 94.5527 18.54C94.8887 18.26 95.3087 18.12 95.8127 18.12C96.3167 18.12 96.7367 18.26 97.0727 18.54C97.4087 18.82 97.5767 19.2307 97.5767 19.772V36.488C97.5767 37.0293 97.4087 37.4493 97.0727 37.748C96.7367 38.028 96.3167 38.168 95.8127 38.168ZM111.994 24.028C112.535 24.028 112.965 24.1773 113.282 24.476C113.599 24.7747 113.758 25.176 113.758 25.68V36.544C113.758 37.0293 113.59 37.4213 113.254 37.72C112.937 38.0187 112.517 38.168 111.994 38.168C111.49 38.168 111.089 38.028 110.79 37.748C110.491 37.468 110.342 37.0853 110.342 36.6V35.9C109.913 36.6467 109.334 37.2253 108.606 37.636C107.878 38.028 107.057 38.224 106.142 38.224C102.782 38.224 101.102 36.3387 101.102 32.568V25.68C101.102 25.176 101.261 24.7747 101.578 24.476C101.895 24.1773 102.315 24.028 102.838 24.028C103.379 24.028 103.809 24.1773 104.126 24.476C104.443 24.7747 104.602 25.176 104.602 25.68V32.596C104.602 33.5667 104.798 34.2853 105.19 34.752C105.582 35.2187 106.198 35.452 107.038 35.452C108.009 35.452 108.783 35.1347 109.362 34.5C109.959 33.8467 110.258 32.988 110.258 31.924V25.68C110.258 25.176 110.417 24.7747 110.734 24.476C111.051 24.1773 111.471 24.028 111.994 24.028ZM125.269 23.972C126.464 23.972 127.518 24.2613 128.433 24.84C129.348 25.4187 130.057 26.24 130.561 27.304C131.084 28.368 131.345 29.6093 131.345 31.028C131.345 32.4467 131.084 33.7067 130.561 34.808C130.057 35.8907 129.338 36.7307 128.405 37.328C127.49 37.9253 126.445 38.224 125.269 38.224C124.28 38.224 123.393 38.0093 122.609 37.58C121.844 37.1507 121.256 36.5533 120.845 35.788V36.488C120.845 36.992 120.686 37.3933 120.369 37.692C120.052 37.9907 119.632 38.14 119.109 38.14C118.586 38.14 118.166 37.9907 117.849 37.692C117.55 37.3933 117.401 36.992 117.401 36.488V19.744C117.401 19.2587 117.56 18.8667 117.877 18.568C118.213 18.2693 118.642 18.12 119.165 18.12C119.688 18.12 120.108 18.26 120.425 18.54C120.742 18.82 120.901 19.2027 120.901 19.688V26.296C121.312 25.5493 121.9 24.98 122.665 24.588C123.43 24.1773 124.298 23.972 125.269 23.972ZM124.345 35.508C125.446 35.508 126.305 35.116 126.921 34.332C127.537 33.548 127.845 32.4467 127.845 31.028C127.845 29.628 127.537 28.5547 126.921 27.808C126.324 27.0613 125.465 26.688 124.345 26.688C123.225 26.688 122.357 27.0707 121.741 27.836C121.144 28.5827 120.845 29.6653 120.845 31.084C120.845 32.5027 121.144 33.5947 121.741 34.36C122.357 35.1253 123.225 35.508 124.345 35.508ZM143.547 25.036C143.696 24.7 143.892 24.448 144.135 24.28C144.396 24.112 144.676 24.028 144.975 24.028C145.404 24.028 145.787 24.1773 146.123 24.476C146.477 24.756 146.655 25.1107 146.655 25.54C146.655 25.764 146.599 25.988 146.487 26.212L141.307 37.048C141.139 37.4027 140.896 37.6733 140.579 37.86C140.28 38.0467 139.944 38.14 139.571 38.14C139.216 38.14 138.871 38.0467 138.535 37.86C138.217 37.6733 137.975 37.4027 137.807 37.048L132.599 26.212C132.505 26.0253 132.459 25.8107 132.459 25.568C132.459 25.1387 132.636 24.7747 132.991 24.476C133.364 24.1773 133.784 24.028 134.251 24.028C134.923 24.028 135.417 24.3547 135.735 25.008L139.655 33.66L143.547 25.036ZM150.938 38.168C150.434 38.168 150.014 38.028 149.678 37.748C149.36 37.4493 149.202 37.0293 149.202 36.488V25.68C149.202 25.1387 149.36 24.728 149.678 24.448C150.014 24.168 150.434 24.028 150.938 24.028C151.442 24.028 151.862 24.168 152.198 24.448C152.534 24.728 152.702 25.1387 152.702 25.68V36.488C152.702 37.0293 152.534 37.4493 152.198 37.748C151.862 38.028 151.442 38.168 150.938 38.168ZM150.938 21.536C150.303 21.536 149.799 21.368 149.426 21.032C149.052 20.6773 148.866 20.22 148.866 19.66C148.866 19.1 149.052 18.652 149.426 18.316C149.799 17.98 150.303 17.812 150.938 17.812C151.554 17.812 152.048 17.98 152.422 18.316C152.814 18.652 153.01 19.1 153.01 19.66C153.01 20.22 152.823 20.6773 152.45 21.032C152.076 21.368 151.572 21.536 150.938 21.536ZM167.147 34.248C167.464 34.248 167.716 34.3693 167.903 34.612C168.108 34.8547 168.211 35.1813 168.211 35.592C168.211 36.1707 167.866 36.656 167.175 37.048C166.54 37.4027 165.822 37.692 165.019 37.916C164.216 38.1213 163.451 38.224 162.723 38.224C160.52 38.224 158.775 37.5893 157.487 36.32C156.199 35.0507 155.555 33.3147 155.555 31.112C155.555 29.712 155.835 28.4707 156.395 27.388C156.955 26.3053 157.739 25.4653 158.747 24.868C159.774 24.2707 160.931 23.972 162.219 23.972C163.451 23.972 164.524 24.2427 165.439 24.784C166.354 25.3253 167.063 26.0907 167.567 27.08C168.071 28.0693 168.323 29.236 168.323 30.58C168.323 31.3827 167.968 31.784 167.259 31.784H158.999C159.111 33.072 159.475 34.024 160.091 34.64C160.707 35.2373 161.603 35.536 162.779 35.536C163.376 35.536 163.899 35.4613 164.347 35.312C164.814 35.1627 165.336 34.9573 165.915 34.696C166.475 34.3973 166.886 34.248 167.147 34.248ZM162.303 26.436C161.351 26.436 160.586 26.7347 160.007 27.332C159.447 27.9293 159.111 28.788 158.999 29.908H165.327C165.29 28.7693 165.01 27.9107 164.487 27.332C163.964 26.7347 163.236 26.436 162.303 26.436ZM189.475 25.064C189.606 24.728 189.793 24.476 190.035 24.308C190.297 24.14 190.577 24.056 190.875 24.056C191.305 24.056 191.687 24.2053 192.023 24.504C192.378 24.784 192.555 25.1387 192.555 25.568C192.555 25.8107 192.509 26.0253 192.415 26.212L187.795 37.048C187.646 37.4027 187.413 37.6733 187.095 37.86C186.797 38.0467 186.461 38.14 186.087 38.14C185.733 38.14 185.397 38.0467 185.079 37.86C184.781 37.6733 184.557 37.4027 184.407 37.048L181.075 29.04L177.855 37.048C177.706 37.4027 177.473 37.6733 177.155 37.86C176.857 38.0467 176.521 38.14 176.147 38.14C175.793 38.14 175.457 38.0467 175.139 37.86C174.822 37.6733 174.589 37.4027 174.439 37.048L169.847 26.212C169.754 25.9693 169.707 25.764 169.707 25.596C169.707 25.1667 169.894 24.8027 170.267 24.504C170.641 24.1867 171.051 24.028 171.499 24.028C171.817 24.028 172.106 24.112 172.367 24.28C172.629 24.448 172.825 24.7 172.955 25.036L176.259 33.576L179.647 25.12C179.797 24.7653 180.011 24.504 180.291 24.336C180.571 24.1493 180.879 24.056 181.215 24.056C181.551 24.056 181.859 24.1493 182.139 24.336C182.419 24.504 182.634 24.7653 182.783 25.12L186.199 33.604L189.475 25.064ZM195.533 38.168C194.936 38.168 194.441 37.972 194.049 37.58C193.657 37.1693 193.461 36.6653 193.461 36.068C193.461 35.4707 193.657 34.976 194.049 34.584C194.441 34.1733 194.936 33.968 195.533 33.968C196.131 33.968 196.625 34.1733 197.017 34.584C197.409 34.976 197.605 35.4707 197.605 36.068C197.605 36.6653 197.409 37.1693 197.017 37.58C196.625 37.972 196.131 38.168 195.533 38.168Z" fill="#FF7062"/>
</svg>
