<svg width="15" height="15" viewBox="0 0 15 15" fill="none" xmlns="http://www.w3.org/2000/svg">
<path d="M7.49996 0C7.9142 0 8.24996 0.335761 8.24996 0.750005C8.24996 1.13462 7.96043 1.45166 7.58744 1.49497L7.49997 1.5H2.99994C2.20914 1.5 1.56135 2.11189 1.504 2.88804L1.49992 3V12.0001C1.49992 12.7909 2.11182 13.4386 2.88796 13.496L2.99992 13.5001H7.49995C7.91419 13.5001 8.24996 13.8358 8.24996 14.2501C8.24996 14.6347 7.96043 14.9517 7.58743 14.995L7.49996 15.0001H2.99993C1.39331 15.0001 0.0816091 13.7371 0.00366213 12.1498L0 12.0001V3C0 1.39338 1.26301 0.0816766 2.85029 0.00372967L3.00001 6.75004e-05L7.49996 0ZM12.4596 4.65726L12.5304 4.71962L14.7804 6.96964C14.8012 6.99056 14.821 7.01275 14.8393 7.03598L14.7804 6.96964C14.8069 6.99621 14.831 7.02426 14.8528 7.05355C14.8662 7.07165 14.8787 7.09028 14.8905 7.10953C14.896 7.11853 14.9013 7.12774 14.9065 7.13694C14.9146 7.1518 14.9225 7.16708 14.9298 7.18267C14.9358 7.19543 14.9413 7.20841 14.9465 7.22148C14.9525 7.23634 14.9579 7.2512 14.9629 7.26616C14.9664 7.27736 14.97 7.28887 14.9731 7.30048C14.9776 7.3167 14.9815 7.33292 14.9848 7.34945C14.9874 7.36253 14.9897 7.3755 14.9917 7.38868C14.994 7.40365 14.9958 7.41913 14.9972 7.43472C14.9984 7.44885 14.9992 7.46235 14.9996 7.47585C14.9999 7.48338 15 7.49164 15 7.50002L14.9996 7.52492C14.9992 7.538 14.9984 7.55097 14.9973 7.56395L15 7.50001C15 7.538 14.9972 7.57525 14.9917 7.61176C14.9897 7.62453 14.9874 7.6375 14.9848 7.65058C14.9815 7.66711 14.9776 7.68333 14.9732 7.69944C14.97 7.71116 14.9664 7.72267 14.9626 7.73408C14.9579 7.74883 14.9525 7.76369 14.9466 7.77834C14.9413 7.79163 14.9358 7.8046 14.9298 7.81747C14.9225 7.83295 14.9146 7.84823 14.9064 7.86319C14.9013 7.87229 14.896 7.8815 14.8906 7.8905C14.888 7.89437 14.8856 7.89824 14.8832 7.90211L14.8565 7.94135C14.852 7.94752 14.8474 7.95359 14.8427 7.95966C14.8379 7.96573 14.8366 7.9674 14.8352 7.96908L14.7804 8.03039L12.5304 10.2804C12.2374 10.5733 11.7626 10.5733 11.4696 10.2804C11.1993 10.01 11.1785 9.58459 11.4072 9.29037L11.4696 9.21964L12.4379 8.25002H3.74995C3.3357 8.25002 2.99994 7.91426 2.99994 7.50002C2.99994 7.1154 3.28947 6.79836 3.66246 6.75505L3.74994 6.75002H12.4387L11.4696 5.7804C11.1768 5.48742 11.1768 5.01261 11.4696 4.71963C11.74 4.44936 12.1654 4.42854 12.4597 4.65727L12.4596 4.65726Z" fill="white"/>
</svg>
