<svg width="30" height="30" viewBox="0 0 30 30" fill="none" xmlns="http://www.w3.org/2000/svg">
<path d="M24.7949 0H5.20511C3.82463 0 2.50069 0.548394 1.52454 1.52454C0.548394 2.50069 0 3.82463 0 5.20511V24.7949C0 26.1754 0.548394 27.4993 1.52454 28.4755C2.50069 29.4516 3.82463 30 5.20511 30H24.7949C26.1754 30 27.4993 29.4516 28.4755 28.4755C29.4516 27.4993 30 26.1754 30 24.7949V5.20511C30 3.82463 29.4516 2.50069 28.4755 1.52454C27.4993 0.548394 26.1754 0 24.7949 0ZM22.6509 17.144H17.144V22.6548C17.1205 23.2071 16.8845 23.7291 16.4854 24.1116C16.0863 24.4941 15.5548 24.7077 15.0019 24.7077C14.4491 24.7077 13.9176 24.4941 13.5185 24.1116C13.1193 23.7291 12.8834 23.2071 12.8599 22.6548V17.144H7.3452C6.79285 17.1205 6.27093 16.8845 5.8884 16.4854C5.50587 16.0863 5.29231 15.5548 5.29231 15.0019C5.29231 14.4491 5.50587 13.9176 5.8884 13.5185C6.27093 13.1193 6.79285 12.8834 7.3452 12.8599H12.856V7.3452C12.8795 6.79285 13.1155 6.27093 13.5146 5.8884C13.9137 5.50587 14.4452 5.29231 14.9981 5.29231C15.5509 5.29231 16.0824 5.50587 16.4815 5.8884C16.8807 6.27093 17.1166 6.79285 17.1401 7.3452V12.856H22.6548C23.2071 12.8795 23.7291 13.1155 24.1116 13.5146C24.4941 13.9137 24.7077 14.4452 24.7077 14.9981C24.7077 15.5509 24.4941 16.0824 24.1116 16.4815C23.7291 16.8807 23.2071 17.1166 22.6548 17.1401L22.6509 17.144Z" fill="#C7C7C7"/>
</svg>
