<svg width="111" height="77" viewBox="0 0 111 77" fill="none" xmlns="http://www.w3.org/2000/svg">
<path d="M93.24 33.5043C93.9511 31.6861 94.35 29.698 94.35 27.625C94.35 18.6191 86.8922 11.3125 77.7 11.3125C74.2833 11.3125 71.092 12.332 68.4558 14.0652C63.6516 5.90898 54.6848 0.4375 44.4 0.4375C29.0681 0.4375 16.65 12.6039 16.65 27.625C16.65 28.0838 16.6673 28.5426 16.6847 29.0014C6.97219 32.3488 0 41.4227 0 52.0938C0 65.6025 11.1867 76.5625 24.975 76.5625H88.8C101.062 76.5625 111 66.826 111 54.8125C111 44.2943 103.369 35.5094 93.24 33.5043ZM68.2303 43.9375H56.8875V62.9688C56.8875 64.4641 55.6388 65.6875 54.1125 65.6875H45.7875C44.2613 65.6875 43.0125 64.4641 43.0125 62.9688V43.9375H31.6697C29.1895 43.9375 27.9581 41.0148 29.7098 39.2986L47.9902 21.3889C49.0655 20.3354 50.8345 20.3354 51.9098 21.3889L70.1902 39.2986C71.9419 41.0148 70.6931 43.9375 68.2303 43.9375Z" fill="#B4B4B4"/>
</svg>
