<svg width="19" height="22" viewBox="0 0 19 22" fill="none" xmlns="http://www.w3.org/2000/svg">
<path d="M19 5.23965V5.5H12.6667V0H12.9665C13.2814 1.42998e-06 13.5834 0.108643 13.8061 0.302027L18.6522 4.51043C18.8749 4.70383 19 4.96614 19 5.23965ZM12.2708 6.875C11.6177 6.875 11.0833 6.41094 11.0833 5.84375V0H1.1875C0.531654 0 0 0.461699 0 1.03125V20.9688C0 21.5383 0.531654 22 1.1875 22H17.8125C18.4683 22 19 21.5383 19 20.9688V6.875H12.2708ZM5.56863 7.5625C6.88033 7.5625 7.94363 8.4859 7.94363 9.625C7.94363 10.7641 6.88033 11.6875 5.56863 11.6875C4.25694 11.6875 3.19363 10.7641 3.19363 9.625C3.19363 8.4859 4.25699 7.5625 5.56863 7.5625ZM15.8603 17.875H3.19363L3.21763 15.7917L5.1728 14.0938C5.40466 13.8924 5.7566 13.9132 5.98846 14.1146L7.94363 15.8125L13.0655 11.3646C13.2973 11.1632 13.6733 11.1632 13.9052 11.3646L15.8603 13.0625V17.875Z" fill="#35C1FD" fill-opacity="0.6"/>
</svg>
