<svg width="24" height="23" viewBox="0 0 24 23" fill="none" xmlns="http://www.w3.org/2000/svg">
<path fill-rule="evenodd" clip-rule="evenodd" d="M22.0986 11.682L12.2359 22.0544C12.2049 22.087 12.1682 22.1129 12.1277 22.1305C12.0872 22.1481 12.0438 22.1572 12 22.1572C11.9562 22.1572 11.9128 22.1481 11.8723 22.1305C11.8318 22.1129 11.7951 22.087 11.7641 22.0544L1.90141 11.682C0.682848 10.3975 -0.00103209 8.65685 1.16914e-06 6.84245C0.00103442 5.02805 0.686896 3.28828 1.90692 2.00531C3.12695 0.722335 4.78137 0.00108779 6.50675 1.22946e-06C8.23213 -0.00108534 9.88736 0.718078 11.1088 1.99951L12 2.93664L12.8911 1.99951C14.1126 0.718078 15.7679 -0.00108534 17.4933 1.22946e-06C19.2186 0.00108779 20.873 0.722335 22.0931 2.00531C23.3131 3.28828 23.999 5.02805 24 6.84245C24.001 8.65685 23.3172 10.3975 22.0986 11.682Z" fill="#C7C7C7"/>
</svg>
