<svg width="21" height="19" viewBox="0 0 21 19" fill="none" xmlns="http://www.w3.org/2000/svg">
<path d="M18.5851 2.24069C18.0974 1.75295 17.5183 1.3661 16.881 1.10226C16.2436 0.838413 15.5606 0.702744 14.8708 0.703003C14.181 0.703262 13.4981 0.839444 12.861 1.10377C12.2239 1.36809 11.6451 1.75537 11.1577 2.24348L10.5215 2.88742L9.8906 2.24487L9.8865 2.24077C9.39899 1.75326 8.82023 1.36654 8.18327 1.1027C7.54631 0.838862 6.86362 0.703065 6.17417 0.703065C5.48473 0.703065 4.80204 0.838862 4.16508 1.1027C3.52811 1.36654 2.94936 1.75326 2.46185 2.24077L2.17843 2.52419C1.19387 3.50875 0.640747 4.84411 0.640747 6.23649C0.640747 7.62887 1.19387 8.96423 2.17843 9.94879L9.65857 17.4289L10.5033 18.3139L10.5234 18.2937L10.5453 18.3156L11.3367 17.4805L18.8685 9.94867C19.8516 8.96332 20.4037 7.62826 20.4037 6.23637C20.4037 4.84447 19.8516 3.50941 18.8685 2.52406L18.5851 2.24069ZM17.9402 9.02061L10.5234 16.4376L3.10645 9.02061C2.36803 8.28219 1.95319 7.28067 1.95319 6.23639C1.95319 5.1921 2.36803 4.19059 3.10645 3.45217L3.38991 3.16875C4.12797 2.43069 5.12888 2.01588 6.17265 2.01549C7.21642 2.0151 8.21765 2.42915 8.95626 3.16666L10.5187 4.75753L12.0885 3.16875C12.4541 2.80311 12.8882 2.51308 13.3659 2.3152C13.8436 2.11732 14.3557 2.01547 14.8727 2.01547C15.3898 2.01547 15.9018 2.11732 16.3796 2.3152C16.8573 2.51308 17.2914 2.80311 17.657 3.16875L17.9404 3.45212C18.6777 4.19116 19.0918 5.19247 19.0917 6.2364C19.0917 7.28033 18.6776 8.28162 17.9402 9.02061Z" fill="#FF0000"/>
</svg>
