<svg width="17" height="15" viewBox="0 0 17 15" fill="none" xmlns="http://www.w3.org/2000/svg">
<path d="M15.0452 1.62344C14.6503 1.22861 14.1816 0.915444 13.6656 0.701856C13.1497 0.488269 12.5968 0.378441 12.0384 0.378651C11.48 0.378861 10.9271 0.489103 10.4114 0.703078C9.8956 0.917053 9.42706 1.23057 9.03252 1.6257L8.5175 2.14699L8.00677 1.62683L8.00345 1.62351C7.6088 1.22886 7.14028 0.915801 6.62465 0.702216C6.10901 0.488632 5.55636 0.378701 4.99824 0.378701C4.44012 0.378701 3.88746 0.488632 3.37183 0.702216C2.85619 0.915801 2.38767 1.22886 1.99302 1.62351L1.76359 1.85294C0.966563 2.64997 0.518799 3.73098 0.518799 4.85814C0.518799 5.98531 0.966563 7.06631 1.76359 7.86334L7.81894 13.9186L8.50276 14.6351L8.51906 14.6188L8.53676 14.6365L9.17745 13.9605L15.2746 7.86324C16.0704 7.06558 16.5174 5.98482 16.5174 4.85804C16.5174 3.73127 16.0704 2.65051 15.2746 1.85284L15.0452 1.62344ZM14.5231 7.11196L8.51906 13.1162L2.51484 7.11196C1.91708 6.51418 1.58125 5.70343 1.58125 4.85806C1.58125 4.01269 1.91708 3.20194 2.51484 2.60416L2.74431 2.37473C3.34179 1.77726 4.15205 1.44146 4.99701 1.44114C5.84196 1.44082 6.65248 1.77601 7.2504 2.37304L8.51521 3.66089L9.78603 2.37473C10.082 2.07874 10.4334 1.84395 10.8201 1.68376C11.2069 1.52357 11.6213 1.44112 12.0399 1.44112C12.4585 1.44112 12.873 1.52357 13.2597 1.68376C13.6465 1.84395 13.9979 2.07874 14.2938 2.37473L14.5233 2.60413C15.1201 3.2024 15.4553 4.01299 15.4553 4.85807C15.4553 5.70316 15.1201 6.51373 14.5231 7.11196Z" fill="#FF0000"/>
</svg>
