<svg width="25" height="25" viewBox="0 0 25 25" fill="none" xmlns="http://www.w3.org/2000/svg">
<path d="M12.5 0C5.6075 0 0 5.6075 0 12.5C0 19.3925 5.6075 25 12.5 25C19.3925 25 25 19.3925 25 12.5C25 5.6075 19.3925 0 12.5 0ZM12.5 22.9167C10.62 22.9167 8.8581 22.416 7.33548 21.5449C7.07492 20.4546 6.67087 19.3458 7.00439 18.3059C7.10951 17.9781 7.28434 17.6763 7.3938 17.35C7.70996 16.4063 7.40614 15.2859 6.65622 14.6315C6.13688 14.1782 5.45424 13.9528 4.9117 13.5276C4.27056 13.025 3.87193 12.2842 3.45215 11.5861C3.12609 11.044 2.76449 10.5225 2.38363 10.0163C3.49786 5.46292 7.60335 2.08333 12.5 2.08333C13.4817 2.08333 14.4305 2.22209 15.3311 2.47599C14.7656 3.28125 14.6723 4.35249 14.1348 5.18392C13.2738 6.51571 11.5046 6.91298 10.3402 7.98977C9.09709 9.13913 8.28776 11.9523 9.82788 13.2096C10.1949 13.5093 10.6641 13.6629 11.1346 13.7188C12.0382 13.8264 12.9865 13.4422 13.8658 13.6405C14.6792 13.8239 15.2439 14.6006 15.4617 15.4053C15.6795 16.2101 15.6246 17.0591 15.6417 17.8927C15.6715 19.3429 15.9313 20.7865 16.3981 22.1598C15.1937 22.6463 13.8787 22.9167 12.5 22.9167Z" fill="white"/>
</svg>
