<svg width="25" height="25" viewBox="0 0 25 25" fill="none" xmlns="http://www.w3.org/2000/svg">
<path fill-rule="evenodd" clip-rule="evenodd" d="M20.8333 0H4.16667C3.0616 0 2.00179 0.438987 1.22039 1.22039C0.438987 2.00179 0 3.0616 0 4.16667V20.8333C0 21.9384 0.438987 22.9982 1.22039 23.7796C2.00179 24.561 3.0616 25 4.16667 25H20.8333C21.9384 25 22.9982 24.561 23.7796 23.7796C24.561 22.9982 25 21.9384 25 20.8333V4.16667C25 3.0616 24.561 2.00179 23.7796 1.22039C22.9982 0.438987 21.9384 0 20.8333 0ZM22.9167 20.8333C22.9167 21.3859 22.6972 21.9158 22.3065 22.3065C21.9158 22.6972 21.3859 22.9167 20.8333 22.9167H4.16667C3.61413 22.9167 3.08423 22.6972 2.69353 22.3065C2.30283 21.9158 2.08333 21.3859 2.08333 20.8333V4.16667C2.08333 3.61414 2.30283 3.08423 2.69353 2.69353C3.08423 2.30283 3.61413 2.08333 4.16667 2.08333H20.8333C21.3859 2.08333 21.9158 2.30283 22.3065 2.69353C22.6972 3.08423 22.9167 3.61414 22.9167 4.16667V20.8333ZM12.5 6.25C11.2639 6.25 10.0555 6.61656 9.02769 7.30332C7.99988 7.99007 7.19881 8.96619 6.72576 10.1082C6.25271 11.2503 6.12894 12.5069 6.3701 13.7193C6.61126 14.9317 7.20651 16.0453 8.08059 16.9194C8.95467 17.7935 10.0683 18.3888 11.2807 18.6299C12.4931 18.8711 13.7497 18.7473 14.8918 18.2743C16.0338 17.8012 17.0099 17.0001 17.6967 15.9723C18.3834 14.9445 18.75 13.7361 18.75 12.5C18.75 10.8424 18.0915 9.25269 16.9194 8.08058C15.7473 6.90848 14.1576 6.25 12.5 6.25ZM12.5 16.6667C11.6759 16.6667 10.8703 16.4223 10.1851 15.9645C9.49993 15.5066 8.96587 14.8559 8.65051 14.0945C8.33514 13.3332 8.25263 12.4954 8.4134 11.6871C8.57417 10.8789 8.97101 10.1364 9.55373 9.55372C10.1364 8.971 10.8789 8.57417 11.6871 8.4134C12.4954 8.25262 13.3332 8.33514 14.0945 8.6505C14.8559 8.96587 15.5066 9.49992 15.9645 10.1851C16.4223 10.8703 16.6667 11.6759 16.6667 12.5C16.6667 13.6051 16.2277 14.6649 15.4463 15.4463C14.6649 16.2277 13.6051 16.6667 12.5 16.6667ZM20.8333 5.72949C20.8333 6.59244 20.1338 7.292 19.2708 7.292C18.4079 7.292 17.7083 6.59244 17.7083 5.72949C17.7083 4.86655 18.4079 4.16699 19.2708 4.16699C20.1338 4.16699 20.8333 4.86655 20.8333 5.72949Z" fill="white"/>
</svg>
