<svg width="22" height="28" viewBox="0 0 22 28" fill="none" xmlns="http://www.w3.org/2000/svg">
<path d="M11.7918 16.6879C12.9946 16.6879 13.9698 15.6951 13.9698 14.4703C13.9698 13.2456 12.9946 12.2527 11.7918 12.2527C10.5889 12.2527 9.61377 13.2456 9.61377 14.4703C9.61377 15.6951 10.5889 16.6879 11.7918 16.6879Z" fill="white"/>
<path d="M15.29 21.7729H8.25V19.4657C8.25 18.1889 9.24 17.1809 10.494 17.1809H13.024C14.278 17.1809 15.268 18.1889 15.268 19.4657V21.7729H15.29Z" fill="white"/>
<path d="M9.10738 16.8225C9.10738 15.5457 8.11738 14.5377 6.86338 14.5377H4.31138C3.05738 14.5377 2.06738 15.5457 2.06738 16.8225V19.1073H7.63338C7.74338 18.0993 8.31538 17.2705 9.10738 16.8225Z" fill="white"/>
<path d="M19.2276 14.5377H16.6976C15.4436 14.5377 14.4536 15.5457 14.4536 16.8225C15.2456 17.2481 15.8176 18.0993 15.9276 19.0849H21.4936V16.8001C21.4496 15.5457 20.4816 14.5377 19.2276 14.5377Z" fill="white"/>
<path d="M17.9744 14.0224C19.1773 14.0224 20.1524 13.0295 20.1524 11.8048C20.1524 10.58 19.1773 9.58719 17.9744 9.58719C16.7715 9.58719 15.7964 10.58 15.7964 11.8048C15.7964 13.0295 16.7715 14.0224 17.9744 14.0224Z" fill="white"/>
<path d="M5.61062 14.0224C6.81349 14.0224 7.78862 13.0295 7.78862 11.8048C7.78862 10.58 6.81349 9.58719 5.61062 9.58719C4.40774 9.58719 3.43262 10.58 3.43262 11.8048C3.43262 13.0295 4.40774 14.0224 5.61062 14.0224Z" fill="white"/>
<path d="M18.04 0.828613H2.00202C1.21002 0.828613 0.572021 1.47821 0.572021 2.28461V11.0206C0.572021 11.827 1.21002 12.4766 2.00202 12.4766H2.90402C2.86002 12.2526 2.81602 12.051 2.81602 11.8046C2.81602 11.5582 2.86002 11.3342 2.90402 11.1102H2.50802C2.20002 11.1102 1.91402 10.819 1.91402 10.5054V3.20301L9.26202 6.98861C9.76802 7.21261 10.296 7.21261 10.802 6.98861L18.15 3.24781V8.98221C18.612 9.02701 19.074 9.18381 19.448 9.40781V2.26221C19.448 1.47821 18.81 0.828613 18.04 0.828613ZM10.802 5.44301C10.296 5.66701 9.76802 5.66701 9.26202 5.44301L2.92602 2.17261H17.16L10.802 5.44301Z" fill="white"/>
<path d="M8.31592 11.1106C8.38192 11.3346 8.40392 11.5586 8.40392 11.805C8.40392 12.0514 8.38192 12.253 8.31592 12.477H9.76792C10.2739 11.9394 10.9779 11.6034 11.7919 11.6034C12.5839 11.6034 13.3099 11.917 13.8159 12.477H15.2679C15.2239 12.253 15.1799 12.0514 15.1799 11.805C15.1799 11.5586 15.2239 11.3346 15.2679 11.1106H8.31592Z" fill="white"/>
</svg>
